# xmcd
# 
# Track frame offsets:
#     150
#     17180
#     35303
#     55342
#     64196
#     82437
#     94837
#     108236
#     125685
#     135412
#     153155
#     171782
# 
# Disc length: 2658
# 
# Revision: 2
# Processed by: cddbd v1.5.2PL0 Copyright (c) Steve Scherf et al.
# Submitted via: fre:ac v1.0.31
# 
DISCID=9f0a600c
DTITLE=Various Artist - shepherd moons
DYEAR=1991
DGENRE=Celtic
TTITLE0=Enya - Shepherd Moons
TTITLE1=02 - Caribbean Blue
TTITLE2=Enya - Shepherd Moons
TTITLE3=Enya - Shepherd Moons
TTITLE4=Enya - Shepherd Moons
TTITLE5=Enya - Shepherd Moons
TTITLE6=Enya - Shepherd Moons
TTITLE7=Enya - Shepherd Moons
TTITLE8=Enya - Shepherd Moons
TTITLE9=Enya - Shepherd Moons
TTITLE10=Enya - Shepherd Moons
TTITLE11=Enya - Shepherd Moons
EXTD=YEAR: 1991
EXTT0=
EXTT1=
EXTT2=
EXTT3=
EXTT4=
EXTT5=
EXTT6=
EXTT7=
EXTT8=
EXTT9=
EXTT10=
EXTT11=
PLAYORDER=
